<svg xmlns="http://www.w3.org/2000/svg" xmlns:xlink="http://www.w3.org/1999/xlink" contentStyleType="text/css" data-diagram-type="CLASS" height="598.4375px" preserveAspectRatio="none" style="width:2403px;height:598px;background:#FFFFFF;" version="1.1" viewBox="0 0 2403 598" width="2403.125px" zoomAndPan="magnify"><?plantuml $version$?><defs/><g><g class="title" data-source-line="7"><text fill="#000000" font-family="sans-serif" font-size="21.875" font-weight="700" lengthAdjust="spacing" textLength="657.8007" x="867.1934" y="39.0093">Dominio &#8212; Acquisizione, promozione e approvvigionamento</text></g><!--class User--><g class="entity" data-qualified-name="User" data-source-line="8" id="ent0001"><rect fill="#F1F1F1" height="76.803" rx="3.9063" ry="3.9063" style="stroke:#181818;stroke-width:0.7813;" width="108.092" x="567.9688" y="514.9499"/><ellipse cx="591.4063" cy="540.8514" fill="#ADD1B2" rx="17.1875" ry="17.1875" style="stroke:#181818;stroke-width:1.5625;"/><path d="M590.5762,551.6668 Q587.8418,551.6668 586.0596,550.5194 Q584.3018,549.3475 583.4229,547.2479 Q582.5684,545.1239 582.5684,542.3162 Q582.5684,539.1424 583.5938,536.8719 Q584.6191,534.6014 586.6211,533.3807 Q588.623,532.16 591.5527,532.16 Q592.9443,532.16 593.9941,532.453 Q595.0439,532.7215 596.1182,533.2586 L594.8486,536.408 Q593.8721,535.9197 593.0176,535.7244 Q592.1875,535.5291 591.4307,535.5291 Q589.5996,535.5291 588.501,536.3592 Q587.4023,537.1893 586.9385,538.6785 Q586.4746,540.1678 586.4746,542.1453 Q586.4746,545.2947 587.5977,546.8084 Q588.7207,548.2977 591.2109,548.2977 Q592.1387,548.2977 593.1152,548.0535 Q594.0918,547.8094 595.3857,547.2235 L595.3857,550.6903 Q594.2383,551.1785 592.9932,551.4227 Q591.7725,551.6668 590.5762,551.6668 Z " fill="#000000"/><text fill="#000000" font-family="sans-serif" font-size="26.5625" lengthAdjust="spacing" textLength="58.092" x="613.2813" y="551.1576">User</text><line style="stroke:#181818;stroke-width:0.7813;" x1="569.5313" x2="674.4983" y1="566.7529" y2="566.7529"/><line style="stroke:#181818;stroke-width:0.7813;" x1="569.5313" x2="674.4983" y1="579.2529" y2="579.2529"/></g><!--class Vehicle--><g class="entity" data-qualified-name="Vehicle" data-source-line="9" id="ent0002"><rect fill="#F1F1F1" height="76.803" rx="3.9063" ry="3.9063" style="stroke:#181818;stroke-width:0.7813;" width="138.7717" x="869.5313" y="514.9499"/><ellipse cx="892.9688" cy="540.8514" fill="#ADD1B2" rx="17.1875" ry="17.1875" style="stroke:#181818;stroke-width:1.5625;"/><path d="M892.1387,551.6668 Q889.4043,551.6668 887.6221,550.5194 Q885.8643,549.3475 884.9854,547.2479 Q884.1309,545.1239 884.1309,542.3162 Q884.1309,539.1424 885.1563,536.8719 Q886.1816,534.6014 888.1836,533.3807 Q890.1855,532.16 893.1152,532.16 Q894.5068,532.16 895.5566,532.453 Q896.6064,532.7215 897.6807,533.2586 L896.4111,536.408 Q895.4346,535.9197 894.5801,535.7244 Q893.75,535.5291 892.9932,535.5291 Q891.1621,535.5291 890.0635,536.3592 Q888.9648,537.1893 888.501,538.6785 Q888.0371,540.1678 888.0371,542.1453 Q888.0371,545.2947 889.1602,546.8084 Q890.2832,548.2977 892.7734,548.2977 Q893.7012,548.2977 894.6777,548.0535 Q895.6543,547.8094 896.9482,547.2235 L896.9482,550.6903 Q895.8008,551.1785 894.5557,551.4227 Q893.335,551.6668 892.1387,551.6668 Z " fill="#000000"/><text fill="#000000" font-family="sans-serif" font-size="26.5625" lengthAdjust="spacing" textLength="88.7717" x="914.8438" y="551.1576">Vehicle</text><line style="stroke:#181818;stroke-width:0.7813;" x1="871.0938" x2="1006.7405" y1="566.7529" y2="566.7529"/><line style="stroke:#181818;stroke-width:0.7813;" x1="871.0938" x2="1006.7405" y1="579.2529" y2="579.2529"/></g><!--class VehicleModel--><g class="entity" data-qualified-name="VehicleModel" data-source-line="10" id="ent0003"><rect fill="#F1F1F1" height="76.803" rx="3.9063" ry="3.9063" style="stroke:#181818;stroke-width:0.7813;" width="217.1043" x="1688.2813" y="514.9499"/><ellipse cx="1711.7188" cy="540.8514" fill="#ADD1B2" rx="17.1875" ry="17.1875" style="stroke:#181818;stroke-width:1.5625;"/><path d="M1710.8887,551.6668 Q1708.1543,551.6668 1706.3721,550.5194 Q1704.6143,549.3475 1703.7354,547.2479 Q1702.8809,545.1239 1702.8809,542.3162 Q1702.8809,539.1424 1703.9063,536.8719 Q1704.9316,534.6014 1706.9336,533.3807 Q1708.9355,532.16 1711.8652,532.16 Q1713.2568,532.16 1714.3066,532.453 Q1715.3564,532.7215 1716.4307,533.2586 L1715.1611,536.408 Q1714.1846,535.9197 1713.3301,535.7244 Q1712.5,535.5291 1711.7432,535.5291 Q1709.9121,535.5291 1708.8135,536.3592 Q1707.7148,537.1893 1707.251,538.6785 Q1706.7871,540.1678 1706.7871,542.1453 Q1706.7871,545.2947 1707.9102,546.8084 Q1709.0332,548.2977 1711.5234,548.2977 Q1712.4512,548.2977 1713.4277,548.0535 Q1714.4043,547.8094 1715.6982,547.2235 L1715.6982,550.6903 Q1714.5508,551.1785 1713.3057,551.4227 Q1712.085,551.6668 1710.8887,551.6668 Z " fill="#000000"/><text fill="#000000" font-family="sans-serif" font-size="26.5625" lengthAdjust="spacing" textLength="167.1043" x="1733.5938" y="551.1576">VehicleModel</text><line style="stroke:#181818;stroke-width:0.7813;" x1="1689.8438" x2="1903.8231" y1="566.7529" y2="566.7529"/><line style="stroke:#181818;stroke-width:0.7813;" x1="1689.8438" x2="1903.8231" y1="579.2529" y2="579.2529"/></g><!--class PurchaseProposal--><g class="entity" data-qualified-name="PurchaseProposal" data-source-line="11" id="ent0004"><rect fill="#F1F1F1" height="330.0493" rx="3.9063" ry="3.9063" style="stroke:#181818;stroke-width:0.7813;" width="906.7586" x="9.375" y="81.3561"/><ellipse cx="343.5022" cy="107.2576" fill="#ADD1B2" rx="17.1875" ry="17.1875" style="stroke:#181818;stroke-width:1.5625;"/><path d="M342.6722,118.0731 Q339.9378,118.0731 338.1556,116.9256 Q336.3977,115.7537 335.5188,113.6541 Q334.6643,111.5301 334.6643,108.7225 Q334.6643,105.5487 335.6897,103.2781 Q336.7151,101.0076 338.7171,99.7869 Q340.719,98.5662 343.6487,98.5662 Q345.0403,98.5662 346.0901,98.8592 Q347.1399,99.1278 348.2141,99.6649 L346.9446,102.8143 Q345.9681,102.326 345.1136,102.1307 Q344.2835,101.9354 343.5266,101.9354 Q341.6956,101.9354 340.597,102.7655 Q339.4983,103.5955 339.0345,105.0848 Q338.5706,106.574 338.5706,108.5516 Q338.5706,111.701 339.6936,113.2147 Q340.8167,114.7039 343.3069,114.7039 Q344.2347,114.7039 345.2112,114.4598 Q346.1878,114.2156 347.4817,113.6297 L347.4817,117.0965 Q346.3343,117.5848 345.0891,117.8289 Q343.8684,118.0731 342.6722,118.0731 Z " fill="#000000"/><text fill="#000000" font-family="sans-serif" font-size="26.5625" lengthAdjust="spacing" textLength="225.2229" x="375.5335" y="117.5639">PurchaseProposal</text><line style="stroke:#181818;stroke-width:0.7813;" x1="10.9375" x2="914.5711" y1="133.1592" y2="133.1592"/><text fill="#000000" font-family="sans-serif" font-size="26.5625" lengthAdjust="spacing" textLength="391.2115" x="18.75" y="167.8044">-requestedAmount: BigDecimal</text><text fill="#000000" font-family="sans-serif" font-size="26.5625" lengthAdjust="spacing" textLength="355.5116" x="18.75" y="203.9824">-offeredAmount: BigDecimal</text><text fill="#000000" font-family="sans-serif" font-size="26.5625" lengthAdjust="spacing" textLength="236.3525" x="18.75" y="240.1605">-decidedAt: Instant</text><text fill="#000000" font-family="sans-serif" font-size="26.5625" lengthAdjust="spacing" textLength="401.5442" x="18.75" y="276.3385">-status: PurchaseProposalStatus</text><line style="stroke:#181818;stroke-width:0.7813;" x1="10.9375" x2="914.5711" y1="290.3713" y2="290.3713"/><text fill="#000000" font-family="sans-serif" font-size="26.5625" lengthAdjust="spacing" textLength="888.0086" x="18.75" y="325.0166">+submitOffer(candidate: User, amount: BigDecimal, terms: String): void</text><text fill="#000000" font-family="sans-serif" font-size="26.5625" lengthAdjust="spacing" textLength="716.4949" x="18.75" y="361.1946">+approve(manager: User, reason: String, at: Instant): void</text><text fill="#000000" font-family="sans-serif" font-size="26.5625" lengthAdjust="spacing" textLength="683.5309" x="18.75" y="397.3726">+reject(manager: User, reason: String, at: Instant): void</text></g><!--class Discount--><g class="entity" data-qualified-name="Discount" data-source-line="20" id="ent0005"><rect fill="#F1F1F1" height="330.0493" rx="3.9063" ry="3.9063" style="stroke:#181818;stroke-width:0.7813;" width="681.6952" x="943.75" y="81.3561"/><ellipse cx="1222.8532" cy="107.2576" fill="#ADD1B2" rx="17.1875" ry="17.1875" style="stroke:#181818;stroke-width:1.5625;"/><path d="M1222.0231,118.0731 Q1219.2887,118.0731 1217.5065,116.9256 Q1215.7487,115.7537 1214.8698,113.6541 Q1214.0153,111.5301 1214.0153,108.7225 Q1214.0153,105.5487 1215.0407,103.2781 Q1216.0661,101.0076 1218.068,99.7869 Q1220.07,98.5662 1222.9997,98.5662 Q1224.3913,98.5662 1225.4411,98.8592 Q1226.4909,99.1278 1227.5651,99.6649 L1226.2956,102.8143 Q1225.319,102.326 1224.4645,102.1307 Q1223.6344,101.9354 1222.8776,101.9354 Q1221.0465,101.9354 1219.9479,102.7655 Q1218.8493,103.5955 1218.3854,105.0848 Q1217.9215,106.574 1217.9215,108.5516 Q1217.9215,111.701 1219.0446,113.2147 Q1220.1676,114.7039 1222.6579,114.7039 Q1223.5856,114.7039 1224.5622,114.4598 Q1225.5387,114.2156 1226.8327,113.6297 L1226.8327,117.0965 Q1225.6852,117.5848 1224.4401,117.8289 Q1223.2194,118.0731 1222.0231,118.0731 Z " fill="#000000"/><text fill="#000000" font-family="sans-serif" font-size="26.5625" lengthAdjust="spacing" textLength="110.2076" x="1254.8844" y="117.5639">Discount</text><line style="stroke:#181818;stroke-width:0.7813;" x1="945.3125" x2="1623.8827" y1="133.1592" y2="133.1592"/><text fill="#000000" font-family="sans-serif" font-size="26.5625" lengthAdjust="spacing" textLength="305.8399" x="953.125" y="167.8044">-percentage: BigDecimal</text><text fill="#000000" font-family="sans-serif" font-size="26.5625" lengthAdjust="spacing" textLength="253.5915" x="953.125" y="203.9824">-startsOn: LocalDate</text><text fill="#000000" font-family="sans-serif" font-size="26.5625" lengthAdjust="spacing" textLength="243.5509" x="953.125" y="240.1605">-endsOn: LocalDate</text><text fill="#000000" font-family="sans-serif" font-size="26.5625" lengthAdjust="spacing" textLength="225.0104" x="953.125" y="276.3385">-enabled: boolean</text><line style="stroke:#181818;stroke-width:0.7813;" x1="945.3125" x2="1623.8827" y1="290.3713" y2="290.3713"/><text fill="#000000" font-family="sans-serif" font-size="26.5625" lengthAdjust="spacing" textLength="662.9452" x="953.125" y="325.0166">+appliesTo(vehicle: Vehicle, date: LocalDate): boolean</text><text fill="#000000" font-family="sans-serif" font-size="26.5625" lengthAdjust="spacing" textLength="471.0848" x="953.125" y="361.1946">+apply(price: BigDecimal): BigDecimal</text><text fill="#000000" font-family="sans-serif" font-size="26.5625" lengthAdjust="spacing" textLength="186.8933" x="953.125" y="397.3726">+disable(): void</text></g><!--class StockOrder--><g class="entity" data-qualified-name="StockOrder" data-source-line="29" id="ent0006"><rect fill="#F1F1F1" height="293.8713" rx="3.9063" ry="3.9063" style="stroke:#181818;stroke-width:0.7813;" width="549.2814" x="1653.125" y="99.3249"/><ellipse cx="1850.5354" cy="125.2264" fill="#ADD1B2" rx="17.1875" ry="17.1875" style="stroke:#181818;stroke-width:1.5625;"/><path d="M1849.7053,136.0418 Q1846.971,136.0418 1845.1887,134.8944 Q1843.4309,133.7225 1842.552,131.6229 Q1841.6975,129.4989 1841.6975,126.6912 Q1841.6975,123.5174 1842.7229,121.2469 Q1843.7483,118.9764 1845.7503,117.7557 Q1847.7522,116.535 1850.6819,116.535 Q1852.0735,116.535 1853.1233,116.828 Q1854.1731,117.0965 1855.2473,117.6336 L1853.9778,120.783 Q1853.0012,120.2947 1852.1467,120.0994 Q1851.3167,119.9041 1850.5598,119.9041 Q1848.7288,119.9041 1847.6301,120.7342 Q1846.5315,121.5643 1846.0676,123.0535 Q1845.6038,124.5428 1845.6038,126.5203 Q1845.6038,129.6697 1846.7268,131.1834 Q1847.8499,132.6727 1850.3401,132.6727 Q1851.2678,132.6727 1852.2444,132.4285 Q1853.221,132.1844 1854.5149,131.5985 L1854.5149,135.0653 Q1853.3674,135.5535 1852.1223,135.7977 Q1850.9016,136.0418 1849.7053,136.0418 Z " fill="#000000"/><text fill="#000000" font-family="sans-serif" font-size="26.5625" lengthAdjust="spacing" textLength="141.1793" x="1882.5667" y="135.5326">StockOrder</text><line style="stroke:#181818;stroke-width:0.7813;" x1="1654.6875" x2="2200.8439" y1="151.1279" y2="151.1279"/><text fill="#000000" font-family="sans-serif" font-size="26.5625" lengthAdjust="spacing" textLength="159.0824" x="1662.5" y="185.7732">-quantity: int</text><text fill="#000000" font-family="sans-serif" font-size="26.5625" lengthAdjust="spacing" textLength="268.0415" x="1662.5" y="221.9512">-unitCost: BigDecimal</text><text fill="#000000" font-family="sans-serif" font-size="26.5625" lengthAdjust="spacing" textLength="317.5007" x="1662.5" y="258.1292">-status: StockOrderStatus</text><line style="stroke:#181818;stroke-width:0.7813;" x1="1654.6875" x2="2200.8439" y1="272.162" y2="272.162"/><text fill="#000000" font-family="sans-serif" font-size="26.5625" lengthAdjust="spacing" textLength="331.3398" x="1662.5" y="306.8073">+confirm(actor: User): void</text><text fill="#000000" font-family="sans-serif" font-size="26.5625" lengthAdjust="spacing" textLength="530.5314" x="1662.5" y="342.9853">+receive(actor: User, date: LocalDate): void</text><text fill="#000000" font-family="sans-serif" font-size="26.5625" lengthAdjust="spacing" textLength="312.9586" x="1662.5" y="379.1634">+cancel(actor: User): void</text></g><g class="entity" data-qualified-name="GMN14" data-source-line="45" id="ent0015"><path d="M1039.0625,509.4811 L1039.0625,597.4622 A0,0 0 0 0 1039.0625,597.4622 L1528.9879,597.4622 A0,0 0 0 0 1528.9879,597.4622 L1528.9879,525.1061 L1513.3629,509.4811 L1290.625,509.4811 L1284.375,411.2801 L1278.125,509.4811 L1039.0625,509.4811 A0,0 0 0 0 1039.0625,509.4811" fill="#FEFFDD" style="stroke:#181818;stroke-width:0.7813;"/><path d="M1513.3629,509.4811 L1513.3629,525.1061 L1528.9879,525.1061 L1513.3629,509.4811" fill="#FEFFDD" style="stroke:#181818;stroke-width:0.7813;"/><text fill="#000000" font-family="sans-serif" font-size="26.5625" lengthAdjust="spacing" textLength="457.1129" x="1048.4375" y="545.6889">Un solo record per veicolo, sostituito</text><text fill="#000000" font-family="sans-serif" font-size="26.5625" lengthAdjust="spacing" textLength="439.5551" x="1048.4375" y="581.8669">dal servizio; nessuno storico sconti.</text></g><g class="entity" data-qualified-name="GMN17" data-source-line="49" id="ent0018"><path d="M1934.375,509.4811 L1934.375,597.4622 A0,0 0 0 0 1934.375,597.4622 L2377.5506,597.4622 A0,0 0 0 0 2377.5506,597.4622 L2377.5506,525.1061 L2361.9256,509.4811 L2130.6846,509.4811 L2037.5103,393.4846 L2118.1846,509.4811 L1934.375,509.4811 A0,0 0 0 0 1934.375,509.4811" fill="#FEFFDD" style="stroke:#181818;stroke-width:0.7813;"/><path d="M2361.9256,509.4811 L2361.9256,525.1061 L2377.5506,525.1061 L2361.9256,509.4811" fill="#FEFFDD" style="stroke:#181818;stroke-width:0.7813;"/><text fill="#000000" font-family="sans-serif" font-size="26.5625" lengthAdjust="spacing" textLength="407.2021" x="1943.75" y="545.6889">RECEIVED registra una ricezione;</text><text fill="#000000" font-family="sans-serif" font-size="26.5625" lengthAdjust="spacing" textLength="410.3631" x="1943.75" y="581.8669">non crea targhe/veicoli inventati.</text></g><g class="link" data-entity-1="ent0004" data-entity-2="ent0001" data-link-type="dependency" id="lnk7"><polygon fill="#181818" points="567.7383,552.8264,553.9173,546.0591,559.9312,552.5366,553.4537,558.5505,567.7383,552.8264" style="stroke:#181818;stroke-width:1.5625;stroke-linejoin:miter;stroke-miterlimit:10;"/><path d="M368.3988,411.5089 C365.0316,436.2538 368.7661,460.4565 384.375,481.3561 C426.446,537.6873 503.8474,550.455 559.9312,552.5366" fill="none" style="stroke:#181818;stroke-width:1.5625;"/><text fill="#000000" font-family="sans-serif" font-size="26.5625" lengthAdjust="spacing" textLength="118.3357" x="387.5" y="470.6889">customer</text><text fill="#000000" font-family="sans-serif" font-size="26.5625" lengthAdjust="spacing" textLength="15.1937" x="552.1133" y="582.7841">1</text><text fill="#000000" font-family="sans-serif" font-size="26.5625" lengthAdjust="spacing" textLength="44.0671" x="323.0863" y="441.4667">0..*</text></g><g class="link" data-entity-1="ent0004" data-entity-2="ent0001" data-link-type="dependency" id="lnk8"><polygon fill="#181818" points="573.3236,514.906,567.2015,500.7873,567.5724,509.6184,558.7413,509.9893,573.3236,514.906" style="stroke:#181818;stroke-width:1.5625;stroke-linejoin:miter;stroke-miterlimit:10;"/><path d="M507.384,411.1389 C517.4584,435.665 529.4947,459.8969 543.75,481.3561 C551.8276,493.5158 556.7349,499.6545 567.5724,509.6184" fill="none" style="stroke:#181818;stroke-width:1.5625;"/><text fill="#000000" font-family="sans-serif" font-size="26.5625" lengthAdjust="spacing" textLength="118.3356" x="546.875" y="470.6889">salesman</text><text fill="#000000" font-family="sans-serif" font-size="26.5625" lengthAdjust="spacing" textLength="44.6249" x="528.0111" y="505.8012">0..1</text><text fill="#000000" font-family="sans-serif" font-size="26.5625" lengthAdjust="spacing" textLength="44.0671" x="508.9465" y="441.0966">0..*</text></g><g class="link" data-entity-1="ent0004" data-entity-2="ent0001" data-link-type="dependency" id="lnk9"><polygon fill="#181818" points="652.2497,514.4746,665.1134,506.0282,656.4759,507.9039,654.6002,499.2663,652.2497,514.4746" style="stroke:#181818;stroke-width:1.5625;stroke-linejoin:miter;stroke-miterlimit:10;"/><path d="M652.616,411.1907 C658.1145,420.2391 663.0231,429.573 667.1875,439.1686 C678.0011,464.0856 670.637,485.8863 656.4759,507.9039" fill="none" style="stroke:#181818;stroke-width:1.5625;"/><text fill="#000000" font-family="sans-serif" font-size="26.5625" lengthAdjust="spacing" textLength="113.3419" x="675" y="470.6889">manager</text><text fill="#000000" font-family="sans-serif" font-size="26.5625" lengthAdjust="spacing" textLength="44.6249" x="606.9372" y="505.3699">0..1</text><text fill="#000000" font-family="sans-serif" font-size="26.5625" lengthAdjust="spacing" textLength="44.0671" x="642.4598" y="441.1484">0..*</text></g><g class="link" data-entity-1="ent0004" data-entity-2="ent0002" data-link-type="dependency" id="lnk10"><polygon fill="#181818" points="895.5259,514.4379,888.6911,500.6501,889.5123,509.4507,880.7117,510.2719,895.5259,514.4379" style="stroke:#181818;stroke-width:1.5625;stroke-linejoin:miter;stroke-miterlimit:10;"/><path d="M754.0952,411.1663 C768.6875,420.4371 783.0229,429.8007 796.875,439.1686 C831.2935,462.4452 862.0076,486.6409 889.5123,509.4507" fill="none" style="stroke:#181818;stroke-width:1.5625;"/><text fill="#000000" font-family="sans-serif" font-size="26.5625" lengthAdjust="spacing" textLength="86.328" x="857.8125" y="470.6889">vehicle</text><text fill="#000000" font-family="sans-serif" font-size="26.5625" lengthAdjust="spacing" textLength="15.1937" x="879.9009" y="505.3331">1</text><text fill="#000000" font-family="sans-serif" font-size="26.5625" lengthAdjust="spacing" textLength="44.0671" x="755.6577" y="441.124">0..*</text></g><g class="link" data-entity-1="ent0005" data-entity-2="ent0002" data-link-type="dependency" id="lnk11"><polygon fill="#181818" points="992.268,514.9024,1007.3211,511.7052,998.5922,510.3154,999.9819,501.5866,992.268,514.9024" style="stroke:#181818;stroke-width:1.5625;stroke-linejoin:miter;stroke-miterlimit:10;"/><path d="M1115.8948,411.5343 C1089.6141,435.505 1062.3935,459.4665 1035.9375,481.3561 C1022.1676,492.7493 1013.0408,499.8358 998.5922,510.3154" fill="none" style="stroke:#181818;stroke-width:1.5625;"/><text fill="#000000" font-family="sans-serif" font-size="26.5625" lengthAdjust="spacing" textLength="86.328" x="1082.8125" y="470.6889">vehicle</text><text fill="#000000" font-family="sans-serif" font-size="26.5625" lengthAdjust="spacing" textLength="15.1937" x="976.643" y="505.7976">1</text><text fill="#000000" font-family="sans-serif" font-size="26.5625" lengthAdjust="spacing" textLength="44.6249" x="1070.5823" y="441.492">0..1</text></g><g class="link" data-entity-1="ent0006" data-entity-2="ent0001" data-link-type="dependency" id="lnk12"><polygon fill="#181818" points="676.2165,540.3503,691.2341,543.7099,683.8762,538.8124,688.7736,531.4545,676.2165,540.3503" style="stroke:#181818;stroke-width:1.5625;stroke-linejoin:miter;stroke-miterlimit:10;"/><path d="M1684.5674,393.2431 C1669.4155,399.808 1654.1794,405.8187 1639.0625,411.0436 C1306.9924,525.8183 1202.9302,462.8896 854.6875,509.4811 C793.2089,517.7064 730.9164,529.3683 683.8762,538.8124" fill="none" style="stroke:#181818;stroke-width:1.5625;"/><text fill="#000000" font-family="sans-serif" font-size="26.5625" lengthAdjust="spacing" textLength="113.3419" x="1550" y="470.6889">manager</text><text fill="#000000" font-family="sans-serif" font-size="26.5625" lengthAdjust="spacing" textLength="15.1937" x="677.779" y="531.2455">1</text><text fill="#000000" font-family="sans-serif" font-size="26.5625" lengthAdjust="spacing" textLength="44.0671" x="1639.2549" y="423.2009">0..*</text></g><g class="link" data-entity-1="ent0006" data-entity-2="ent0003" data-link-type="dependency" id="lnk13"><polygon fill="#181818" points="1812.9637,514.4156,1824.277,503.9837,1816.0612,507.2434,1812.8014,499.0277,1812.9637,514.4156" style="stroke:#181818;stroke-width:1.5625;stroke-linejoin:miter;stroke-miterlimit:10;"/><path d="M1865.191,393.4846 C1845.8487,438.2712 1829.2917,476.6085 1816.0612,507.2434" fill="none" style="stroke:#181818;stroke-width:1.5625;"/><text fill="#000000" font-family="sans-serif" font-size="26.5625" lengthAdjust="spacing" textLength="79.0764" x="1846.875" y="470.6889">model</text><text fill="#000000" font-family="sans-serif" font-size="26.5625" lengthAdjust="spacing" textLength="15.1937" x="1797.3387" y="505.3109">1</text><text fill="#000000" font-family="sans-serif" font-size="26.5625" lengthAdjust="spacing" textLength="44.0671" x="1819.8785" y="423.4423">0..*</text></g><?plantuml-src dLJDRjD04BxxAOQSKfgMze2GN0cfD4Mg1BGYjFVDUk8CNU-uk-EW5bNY8NX2deJnJnAdIK5mydh-PxvlvaKPJ5uOSEQUAu5Oe1XladXBlZJ1513d9kDlv7EO6HUnfybmPYedxzdB9rCWJ8oF4mmqssqpeGU4upSzfNKcnbEHGDDAyCAoRsoE-lubmV7heqH87CAO2_B4yEl7JpYrTnL5UY3sE88oSC7D6n1CgR-B1UNwhuLvuQH91TSHG_UymJbPXvj_7pb3ruckgc3d9k9Lu9AZSV0zWGC8U5TX5CnE2wwyfF2EyZ5QAeohrJoRONXEcUapKwKgBdpKCKijrOTKCTtADsda2Un3hAO5oMKTUcYDpoWpWcdJp0ZCLgeH28P28qvqi3xVIs71bDM1shdWi524SmpB405DPB-qrv3h0dlE0R-YbV_mVUm6EgPewrhRGPOOh2AZiPwEIPs3n4iD-e6jSMDjjXQZptO9pTHXbiAKsQ7nNPUEC7xXuQ95DLt2Eu9sSgiGUrkEzyCoaDseQM-pm7t8ADPPXqyRd0ZRsykGOMXRlAjq2YJtAL0BTUL9pZZAZeuR2gm3hC7NfPXHA8R62dTJtm358YcYFUsk9fVcoXwBRbUinsIBxuEZmyEN0pWuU0k3uq5Z3IdOAWeNkaP_jDVdsaML69Kt_-3IiUolHNN0gaU7TR9YMHVmUSiUNBjRNHRnl67_RDGEpVdmBAYq4XsJteCLxHE0Qm-H7TUeSSZg5T1YoAfef8geNAb8RnKeWWwqXaLztKx0OuoLPwK9ApVrgvmGEanq8w1EzZJZkbuDzVdyxFpYvdoiINEA4eooq43DyUPQdgY9PmzM5nbqyV8vlcfh8cNjejxGVghV?></g></svg>